<svg id="final_svg" viewBox="126.37709045410156 400.1094055175781 730.7576293945312 277.6980285644531" xmlns="http://www.w3.org/2000/svg" xmlns:xlink="http://www.w3.org/1999/xlink" xml:space="preserve">
      <g id="png_group" transform="translate(126.37709266234208, 400.10939369268806) scale(0.93)" opacity="1">
      <g height="277.791" width="292.95" transform="rotate(0)">
                  <style type="text/css">.st0{fill:#2D2D2D;}</style>
          <g id="color_index_0" fill="rgba(198, 135, 51, 1)">
                          <path d="M265.7,0H49.3C22.1,0,0,23.3,0,52v194.6c0,28.7,22.1,52,49.3,52h216.5c27.2,0,49.3-23.3,49.3-52V52		C315,23.3,292.9,0,265.7,0z M255.3,52.8c0.5,0,0.8,0.4,0.8,0.8s-0.4,0.8-0.8,0.8c-0.4,0-0.8-0.4-0.8-0.8S254.8,52.8,255.3,52.8z		 M75.3,65.1l7-2.2c1-0.3,1.7-1.1,2-2.2l2-7.6c0.1-0.4,0.7-0.4,0.8,0l2,7.6c0.3,1,1,1.9,2,2.2l7,2.2c0.4,0.1,0.4,0.7,0,0.8l-7,2.2		c-1,0.3-1.7,1.1-2,2.2l-2,7.6c-0.1,0.4-0.7,0.4-0.8,0l-2-7.6c-0.3-1-1-1.9-2-2.2l-7-2.2C74.9,65.8,74.9,65.2,75.3,65.1z M62.4,92.5		l4.5-1.4c0.6-0.2,1.1-0.7,1.3-1.4l1.3-4.8c0.1-0.3,0.4-0.3,0.5,0l1.3,4.8c0.2,0.7,0.7,1.2,1.3,1.4l4.5,1.4c0.3,0.1,0.3,0.5,0,0.5		l-4.5,1.4c-0.6,0.2-1.1,0.7-1.3,1.4l-1.3,4.8c-0.1,0.3-0.4,0.3-0.5,0l-1.3-4.8c-0.2-0.7-0.7-1.2-1.3-1.4L62.4,93		C62.1,92.9,62.1,92.5,62.4,92.5z M50.1,263.4c-0.9,0-1.6-0.7-1.6-1.6c0-0.9,0.7-1.6,1.6-1.6c0.9,0,1.6,0.7,1.6,1.6		C51.7,262.7,51,263.4,50.1,263.4z M228.5,136l-100.6,31.3c20.4-5.9,80.4-19.5,82.4,22.2c-7.7,8.2-17.6,14.5-29.2,18		c-31.4,9.6-64.4-4.8-79.3-32.7c-44.5,12.2-64.6,16.1-65.5,13.1c-0.8-2.6,8.6-8.6,40.8-20c10.2-3.6,16.9-13.4,16.8-24.3		c-0.2-23.3,11.8-45.3,31.5-57.7c0,0,0,0,0.1-0.1c0.4-0.3,0.8-0.5,1.2-0.7c0.1-0.1,0.2-0.1,0.4-0.2c0.9-0.4,2.1-0.9,3.7-1.1		c13.2-2,47.4-3,67.7,23.5c9.2,12,25.6,13.4,40.5,10.5c5.1-1,5.4-1.1,6-1.4l0,0c0,0,0.1,0,0.2,0c33-8.5,40.6-9.5,41.4-7		C287.5,112.4,272.2,121.2,228.5,136z M286,218.7c-0.9,0-1.6-0.7-1.6-1.6c0-0.9,0.7-1.6,1.6-1.6c0.9,0,1.6,0.7,1.6,1.6		C287.7,217.9,287,218.7,286,218.7z"></path>
                      </g>
              </g>
    </g>
    <g id="text_group" transform="rotate(0)" opacity="1">
      <g id="text_layer_1_0" fill="rgba(198, 135, 51, 1)" transform="translate(468.78469999999993, 470.4003409)">
                  <path d="M0.41 77.13L0.41 76.96L26.83 20.82L29.80 20.82L56.14 76.88L56.14 77.13L46.01 77.13L41.40 67.00L15.15 67.00L10.62 77.13L0.41 77.13ZM24.53 46.01L18.44 59.35L38.19 59.35L32.10 46.01Q30.95 43.46 30.00 41.07Q29.06 38.69 28.32 36.46L28.32 36.46Q27.41 38.93 26.46 41.32Q25.52 43.71 24.53 46.01L24.53 46.01ZM63.38 77.13L63.38 21.15L83.38 21.15Q91.70 21.15 98.20 24.78Q104.70 28.40 108.32 34.78Q111.94 41.16 111.94 49.22L111.94 49.22Q111.94 57.29 108.40 63.63Q104.87 69.97 98.40 73.55Q91.94 77.13 83.46 77.13L83.46 77.13L63.38 77.13ZM73.09 68.73L83.05 68.73Q88.81 68.73 93.14 66.26Q97.46 63.79 99.76 59.35Q102.07 54.90 102.07 49.22L102.07 49.22Q102.07 43.54 99.72 39.06Q97.38 34.57 93.05 32.06Q88.73 29.55 82.97 29.55L82.97 29.55L73.09 29.55L73.09 68.73ZM133.43 77.13L133.43 76.96L159.85 20.82L162.81 20.82L189.15 76.88L189.15 77.13L179.03 77.13L174.42 67.00L148.16 67.00L143.63 77.13L133.43 77.13ZM157.55 46.01L151.45 59.35L171.21 59.35L165.12 46.01Q163.97 43.46 163.02 41.07Q162.07 38.69 161.33 36.46L161.33 36.46Q160.43 38.93 159.48 41.32Q158.53 43.71 157.55 46.01L157.55 46.01ZM213.60 78.20L213.60 78.20Q207.84 78.20 202.53 76.43Q197.22 74.66 193.10 71.36L193.10 71.36L197.63 63.79Q200.84 66.51 204.87 68.03Q208.91 69.55 213.27 69.55L213.27 69.55Q217.72 69.55 220.72 67.58Q223.72 65.60 223.72 62.06L223.72 62.06Q223.72 58.52 220.64 56.47Q217.55 54.41 211.62 52.52L211.62 52.52Q194.91 47.08 194.91 35.48L194.91 35.48Q194.91 30.70 197.43 27.20Q199.94 23.71 204.22 21.89Q208.50 20.08 213.60 20.08L213.60 20.08Q218.54 20.08 222.90 21.40Q227.26 22.72 231.79 25.76L231.79 25.76L227.59 33.01Q224.05 30.70 220.80 29.67Q217.55 28.64 214.09 28.64L214.09 28.64Q210.14 28.64 207.47 30.29Q204.79 31.94 204.79 34.98L204.79 34.98Q204.79 38.44 207.71 40.37Q210.64 42.31 216.23 44.20L216.23 44.20Q224.38 46.84 228.95 50.87Q233.52 54.90 233.52 61.57L233.52 61.57Q233.52 66.67 230.89 70.42Q228.25 74.16 223.72 76.18Q219.20 78.20 213.60 78.20ZM237.22 21.15L278.63 21.15L278.63 30.13L262.82 30.13L262.82 77.13L253.11 77.13L253.11 30.13L237.22 30.13L237.22 21.15ZM287.10 21.15L309.08 21.15Q313.20 21.15 316.70 22.47Q320.19 23.79 322.75 26.13Q325.30 28.48 326.70 31.69Q328.10 34.90 328.10 38.60L328.10 38.60Q328.10 44.53 324.64 48.81Q321.18 53.09 315.17 54.82L315.17 54.82L329.49 76.88L329.49 77.13L318.47 77.13L305.30 55.89L296.82 55.89L296.82 77.13L287.10 77.13L287.10 21.15ZM296.82 29.55L296.82 47.82L308.09 47.82Q312.87 47.82 315.58 45.40Q318.30 42.97 318.30 38.77L318.30 38.77Q318.30 34.74 315.50 32.14Q312.70 29.55 308.26 29.55L308.26 29.55L296.82 29.55ZM332.62 77.13L332.62 76.96L359.04 20.82L362.01 20.82L388.35 76.88L388.35 77.13L378.22 77.13L373.61 67.00L347.36 67.00L342.83 77.13L332.62 77.13ZM356.74 46.01L350.65 59.35L370.40 59.35L364.31 46.01Q363.16 43.46 362.21 41.07Q361.27 38.69 360.53 36.46L360.53 36.46Q359.62 38.93 358.67 41.32Q357.73 43.71 356.74 46.01L356.74 46.01Z"></path>
              </g>
    </g>
    <g id="tagline_group" transform="rotate(0)" opacity="1">
      <g id="text_layer_2_0" fill="rgba(198, 135, 51, 1)" transform="translate(469.0448670532884, 573.4326085194439)">
                  <path d="M3.43 7.53L11.63 7.53Q14.86 7.53 16.62 8.82Q18.39 10.11 18.39 12.55L18.39 12.55Q18.39 14.24 17.51 15.39Q16.62 16.54 15.11 17.05L15.11 17.05Q17.21 17.44 18.32 18.70Q19.43 19.97 19.43 21.99L19.43 21.99Q19.43 24.52 17.62 25.85Q15.81 27.18 12.19 27.18L12.19 27.18L3.43 27.18L3.43 7.53ZM12.19 17.83L4.86 17.83L4.86 25.95L12.19 25.95Q15.08 25.95 16.54 24.96Q18.00 23.98 18.00 21.88L18.00 21.88Q18.00 19.77 16.54 18.80Q15.08 17.83 12.19 17.83L12.19 17.83ZM4.86 8.76L4.86 16.60L11.57 16.60Q14.18 16.60 15.56 15.60Q16.93 14.60 16.93 12.66L16.93 12.66Q16.93 10.73 15.56 9.74Q14.18 8.76 11.57 8.76L11.57 8.76L4.86 8.76ZM46.87 31.42L47.57 30.36Q48.72 31.51 50.29 31.51L50.29 31.51Q51.36 31.51 52.12 30.92Q52.88 30.33 53.52 28.90L53.52 28.90L54.31 27.13L47.71 12.52L49.20 12.52L55.07 25.64L60.94 12.52L62.37 12.52L54.84 29.18Q54.00 31.11 52.89 31.93Q51.78 32.74 50.27 32.74L50.27 32.74Q49.26 32.74 48.37 32.41Q47.49 32.07 46.87 31.42L46.87 31.42ZM126.11 7.53L127.32 7.53L136.11 22.72L144.90 7.53L146.08 7.53L146.11 27.18L144.70 27.18L144.68 10.36L136.45 24.57L135.75 24.57L127.52 10.42L127.52 27.18L126.11 27.18L126.11 7.53ZM179.02 27.18L179.02 12.52L180.42 12.52L180.42 27.18L179.02 27.18ZM179.72 8.96L179.72 8.96Q179.25 8.96 178.91 8.64Q178.57 8.31 178.57 7.83L178.57 7.83Q178.57 7.36 178.91 7.02Q179.25 6.68 179.72 6.68L179.72 6.68Q180.20 6.68 180.54 7.01Q180.87 7.33 180.87 7.81L180.87 7.81Q180.87 8.28 180.54 8.62Q180.20 8.96 179.72 8.96ZM224.71 12.52L226.06 12.52L226.06 25.61Q226.06 29.26 224.29 31.00Q222.52 32.74 218.95 32.74L218.95 32.74Q216.93 32.74 215.13 32.13Q213.34 31.51 212.24 30.41L212.24 30.41L213.00 29.35Q214.09 30.36 215.64 30.92Q217.18 31.48 218.92 31.48L218.92 31.48Q221.85 31.48 223.25 30.09Q224.65 28.70 224.65 25.78L224.65 25.78L224.65 23.31Q223.75 24.91 222.15 25.78Q220.55 26.65 218.56 26.65L218.56 26.65Q216.51 26.65 214.84 25.74Q213.17 24.82 212.21 23.20Q211.26 21.57 211.26 19.52L211.26 19.52Q211.26 17.47 212.21 15.84Q213.17 14.21 214.84 13.31Q216.51 12.41 218.56 12.41L218.56 12.41Q220.58 12.41 222.21 13.31Q223.84 14.21 224.71 15.84L224.71 15.84L224.71 12.52ZM218.67 25.39L218.67 25.39Q220.39 25.39 221.76 24.64Q223.14 23.90 223.91 22.56Q224.68 21.23 224.68 19.52L224.68 19.52Q224.68 17.80 223.91 16.48Q223.14 15.16 221.76 14.42Q220.39 13.68 218.67 13.68L218.67 13.68Q216.96 13.68 215.60 14.42Q214.24 15.16 213.46 16.48Q212.69 17.80 212.69 19.52L212.69 19.52Q212.69 21.23 213.46 22.56Q214.24 23.90 215.60 24.64Q216.96 25.39 218.67 25.39ZM258.35 21.09L258.35 21.09L258.35 12.52L259.76 12.52L259.76 20.98Q259.76 23.45 261.02 24.74Q262.28 26.03 264.59 26.03L264.59 26.03Q265.82 26.03 266.82 25.62Q267.81 25.22 268.50 24.49Q269.19 23.76 269.57 22.69Q269.95 21.62 269.95 20.33L269.95 20.33L269.95 12.52L271.35 12.52L271.35 27.18L270.01 27.18L270.01 24.04Q269.28 25.58 267.84 26.44Q266.41 27.30 264.47 27.30L264.47 27.30Q261.58 27.30 259.97 25.71Q258.35 24.12 258.35 21.09ZM316.23 19.80L316.20 20.19L303.59 20.19Q303.65 21.90 304.46 23.24Q305.28 24.57 306.67 25.30Q308.06 26.03 309.80 26.03L309.80 26.03Q311.23 26.03 312.45 25.51Q313.67 24.99 314.49 23.98L314.49 23.98L315.30 24.91Q314.35 26.06 312.90 26.68Q311.45 27.30 309.77 27.30L309.77 27.30Q307.58 27.30 305.87 26.34Q304.15 25.39 303.18 23.70Q302.22 22.02 302.22 19.85L302.22 19.85Q302.22 17.72 303.13 16.02Q304.04 14.32 305.64 13.37Q307.24 12.41 309.24 12.41L309.24 12.41Q311.23 12.41 312.82 13.35Q314.40 14.29 315.32 15.98Q316.23 17.66 316.23 19.80L316.23 19.80ZM309.24 13.65L309.24 13.65Q307.69 13.65 306.46 14.34Q305.22 15.02 304.48 16.27Q303.73 17.52 303.62 19.10L303.62 19.10L314.85 19.10Q314.77 17.52 314.01 16.29Q313.25 15.05 312.02 14.35Q310.78 13.65 309.24 13.65ZM347.09 27.18L347.09 6.35L348.49 6.35L348.49 27.18L347.09 27.18Z"></path>
              </g>
    </g>
  </svg>